<?xml version="1.0" encoding="UTF-8" standalone="no"?>
<!-- Created with Inkscape (http://www.inkscape.org/) -->

<svg
   xmlns:dc="http://purl.org/dc/elements/1.1/"
   xmlns:cc="http://creativecommons.org/ns#"
   xmlns:rdf="http://www.w3.org/1999/02/22-rdf-syntax-ns#"
   xmlns:svg="http://www.w3.org/2000/svg"
   xmlns="http://www.w3.org/2000/svg"
   xmlns:sodipodi="http://sodipodi.sourceforge.net/DTD/sodipodi-0.dtd"
   xmlns:inkscape="http://www.inkscape.org/namespaces/inkscape"
   width="271.76163"
   height="271.98074"
   id="svg4783"
   sodipodi:version="0.32"
   inkscape:version="0.48.4 r9939"
   version="1.0"
   sodipodi:docname="galileo.svg"
   inkscape:output_extension="org.inkscape.output.svg.inkscape"
   inkscape:export-filename="/home/bennizette/Dropbox/ES/ES2014/Resources/images/interfacing/galileo.png"
   inkscape:export-xdpi="117.58073"
   inkscape:export-ydpi="117.58073">
  <defs
     id="defs4785">
    <inkscape:perspective
       sodipodi:type="inkscape:persp3d"
       inkscape:vp_x="0 : 526.18109 : 1"
       inkscape:vp_y="0 : 1000 : 0"
       inkscape:vp_z="744.09448 : 526.18109 : 1"
       inkscape:persp3d-origin="372.04724 : 350.78739 : 1"
       id="perspective4791" />
    <inkscape:perspective
       id="perspective4968"
       inkscape:persp3d-origin="372.04724 : 350.78739 : 1"
       inkscape:vp_z="744.09448 : 526.18109 : 1"
       inkscape:vp_y="0 : 1000 : 0"
       inkscape:vp_x="0 : 526.18109 : 1"
       sodipodi:type="inkscape:persp3d" />
  </defs>
  <sodipodi:namedview
     id="base"
     pagecolor="#ffffff"
     bordercolor="#666666"
     borderopacity="1.0"
     gridtolerance="10000"
     guidetolerance="10"
     objecttolerance="10"
     inkscape:pageopacity="0.0"
     inkscape:pageshadow="2"
     inkscape:zoom="1"
     inkscape:cx="114.41993"
     inkscape:cy="216.40859"
     inkscape:document-units="px"
     inkscape:current-layer="layer1"
     showgrid="false"
     inkscape:window-width="1024"
     inkscape:window-height="712"
     inkscape:window-x="0"
     inkscape:window-y="27"
     inkscape:window-maximized="0" />
  <metadata
     id="metadata4788">
    <rdf:RDF>
      <cc:Work
         rdf:about="">
        <dc:format>image/svg+xml</dc:format>
        <dc:type
           rdf:resource="http://purl.org/dc/dcmitype/StillImage" />
        <dc:title></dc:title>
      </cc:Work>
    </rdf:RDF>
  </metadata>
  <g
     inkscape:label="Layer 1"
     inkscape:groupmode="layer"
     id="layer1"
     transform="translate(-437.36783,-297.20059)">
    <rect
       style="opacity:1;fill:#343399;fill-opacity:1;stroke:none;stroke-width:2;stroke-miterlimit:4;stroke-dasharray:none;stroke-opacity:1"
       id="rect4997"
       width="271.76163"
       height="271.98074"
       x="437.36783"
       y="297.20059" />
    <g
       id="g4988"
       transform="matrix(0.6798092,0,0,0.6798092,183.54895,138.70377)">
      <path
         d="M 467.71046,532.8143 C 463.47539,522.18442 451.95626,515.50729 440.58566,515.50729 C 424.54039,515.50729 410.83251,528.25324 410.83251,544.57934 C 410.83251,560.84141 424.60441,573.27452 440.74866,573.27452 C 456.73853,573.27452 470.51056,561.06844 470.51056,544.87332 L 470.51056,543.67993 L 434.01179,543.67993 L 434.01179,553.34789 L 457.40659,553.34789 C 454.37946,559.27114 447.64259,563.31119 441.04695,563.31119 C 435.66076,563.31119 430.36038,561.06844 426.58661,557.09244 C 423.33244,553.78879 421.20041,548.84933 421.20041,544.20247 C 421.20041,539.11457 423.7865,533.63221 427.64469,530.26313 C 431.19866,527.18654 435.82516,525.47062 440.58566,525.47062 C 446.19889,525.47062 451.95626,528.25324 455.29481,532.8143 L 467.71046,532.8143 z"
         style="fill:#ffffff;fill-opacity:1;fill-rule:nonzero;stroke:none"
         id="path4974" />
      <path
         d="M 495.47409,547.65305 L 501.44974,530.86704 L 507.43414,547.65305 L 495.47409,547.65305 z M 474.02807,571.93117 L 485.48318,571.93117 L 491.67854,557.61497 L 511.5266,557.61497 L 517.5954,571.93117 L 529.02862,571.93117 L 505.47234,516.55514 L 497.35731,516.55514 L 474.02807,571.93117 z"
         style="fill:#ffffff;fill-opacity:1;fill-rule:nonzero;stroke:none"
         id="path4976" />
      <path
         d="M 537.32272,571.93117 L 564.80845,571.93117 L 564.80845,561.96786 L 547.69785,561.96786 L 547.69785,516.55514 L 537.32272,516.55514 L 537.32272,571.93117 z"
         style="fill:#ffffff;fill-opacity:1;fill-rule:nonzero;stroke:none"
         id="path4978" />
      <path
         d="M 572.93801,571.93117 L 583.31314,571.93117 L 583.31314,516.55514 L 572.93801,516.55514 L 572.93801,571.93117 z"
         style="fill:#ffffff;fill-opacity:1;fill-rule:nonzero;stroke:none"
         id="path4980" />
      <path
         d="M 598.08063,571.93117 L 625.56774,571.93117 L 625.56774,561.96786 L 608.45574,561.96786 L 608.45574,516.55514 L 598.08063,516.55514 L 598.08063,571.93117 z"
         style="fill:#ffffff;fill-opacity:1;fill-rule:nonzero;stroke:none"
         id="path4982" />
      <path
         d="M 633.69593,571.93117 L 663.77066,571.93117 L 663.77066,561.96786 L 644.07106,561.96786 L 644.07106,549.22342 L 662.93097,549.22342 L 662.93097,539.2601 L 644.07106,539.2601 L 644.07106,526.51847 L 663.77066,526.51847 L 663.77066,516.55514 L 633.69593,516.55514 L 633.69593,571.93117 z"
         style="fill:#ffffff;fill-opacity:1;fill-rule:nonzero;stroke:none"
         id="path4984" />
      <path
         d="M 701.88776,525.47062 C 712.34147,525.47062 720.66897,533.86215 720.66897,544.28397 C 720.66897,554.54126 712.11304,563.31119 701.88776,563.31119 C 691.66248,563.31119 683.09186,554.54126 683.09186,544.28397 C 683.09186,533.86215 691.43392,525.47062 701.88776,525.47062 z M 701.88776,515.50729 C 685.75666,515.50729 672.71673,528.39878 672.71673,544.49784 C 672.71673,560.54604 685.96915,573.27452 701.88776,573.27452 C 717.79181,573.27452 731.03689,560.54604 731.03689,544.49784 C 731.03689,528.39878 718.01885,515.50729 701.88776,515.50729 z"
         style="fill:#ffffff;fill-opacity:1;fill-rule:nonzero;stroke:none"
         id="path4986" />
    </g>
    <g
       id="g5025"
       transform="matrix(0.8653826,0,0,0.8653826,351.17299,44.500593)">
      <path
         d="M 253.13767,366.41871 C 229.12439,366.41871 209.61626,386.01283 209.61626,410.09104 C 209.61626,434.16713 229.12439,453.69068 253.13767,453.69068 C 266.60784,453.69068 278.66844,447.57448 286.58843,437.93111 C 284.05121,438.63809 281.43805,439.02017 278.66844,439.02017 C 269.7805,439.02017 261.77901,435.18351 256.22444,429.1422 L 255.284,428.05313 C 249.57305,421.23216 248.6216,412.20759 249.41668,406.79732 C 249.88465,403.34274 251.07292,399.65478 252.98244,396.52176 C 256.38628,390.95397 261.46186,387.04243 268.27949,386.01283 C 276.13016,384.92367 283.58324,387.18999 288.4066,392.68509 C 291.26643,395.89301 293.87968,401.1513 294.75625,405.46149 C 295.39055,408.37092 295.85853,411.57548 295.62728,414.72058 L 265.34363,414.72058 L 265.34363,405.85688 L 282.86189,405.85688 C 283.1846,401.85943 280.16284,397.39067 276.13016,396.12647 C 272.24284,395.03845 268.27949,395.58352 265.18285,398.33111 C 262.25254,400.99272 261.29994,406.48898 261.29994,410.16371 C 261.29994,415.80973 262.33844,419.96901 264.9516,422.79149 C 268.44142,426.48059 273.43101,428.90874 278.89969,428.90874 C 284.84084,428.90874 290.22908,426.1711 293.64402,421.85104 C 294.90708,420.36439 295.7892,418.55724 296.18123,416.60261 C 296.49284,414.48386 296.65476,412.28247 296.65476,410.09104 C 296.65476,386.01283 277.15755,366.41871 253.13767,366.41871 z M 229.36005,416.13235 C 226.26341,416.13235 223.72513,413.54561 223.72513,410.48642 C 223.72513,407.34352 226.26341,404.84375 229.36005,404.84375 C 232.44128,404.84375 234.97964,407.34352 234.97964,410.48642 C 234.97964,413.54561 232.44128,416.13235 229.36005,416.13235 z"
         style="fill:#ffffff;fill-opacity:1;fill-rule:nonzero;stroke:none"
         id="path4999" />
      <path
         d="M 197.89369,471.96218 L 194.08126,465.6852 L 204.46473,459.49527 L 191.14539,461.92122 L 187.18319,456.11671 L 183.22539,463.87814 L 168.80377,466.47808 L 180.61224,468.19819 L 176.09502,476.355 L 187.26909,469.60996 L 197.89369,471.96218 z"
         style="fill:#f9df1a;fill-opacity:1;fill-rule:nonzero;stroke:none"
         id="path5001" />
      <path
         d="M 169.59445,454.00016 L 165.78201,447.7364 L 176.09502,441.53317 L 162.77127,443.88653 L 158.81347,438.07867 L 154.92615,445.85437 L 140.41863,448.44004 L 152.31299,450.23618 L 147.70988,458.32136 L 158.88835,451.57306 L 169.59445,454.00016 z"
         style="fill:#f9df1a;fill-opacity:1;fill-rule:nonzero;stroke:none"
         id="path5003" />
      <path
         d="M 168.00869,425.37822 L 164.19625,419.18934 L 174.50925,412.98725 L 161.18991,415.33946 L 157.22771,409.54597 L 153.33933,417.3074 L 138.91877,419.89633 L 150.72609,421.61644 L 146.12412,429.77431 L 157.30259,423.02601 L 168.00869,425.37822 z"
         style="fill:#f9df1a;fill-opacity:1;fill-rule:nonzero;stroke:none"
         id="path5005" />
      <path
         d="M 192.02752,393.70157 L 188.20953,387.51049 L 198.59847,381.3106 L 185.20433,383.66061 L 181.24099,377.86924 L 177.35367,385.63066 L 162.93205,388.21748 L 174.74597,389.93759 L 170.1374,398.09545 L 181.31702,391.34936 L 192.02752,393.70157 z"
         style="fill:#f9df1a;fill-opacity:1;fill-rule:nonzero;stroke:none"
         id="path5007" />
      <path
         d="M 236.88802,368.2974 L 233.08659,362.02263 L 243.47007,355.82054 L 230.06483,358.18597 L 226.10263,352.45414 L 222.21972,360.14068 L 207.7981,362.72741 L 219.60656,364.53677 L 215.09039,372.60759 L 226.19408,365.94853 L 236.88802,368.2974 z"
         style="fill:#f9df1a;fill-opacity:1;fill-rule:nonzero;stroke:none"
         id="path5009" />
      <path
         d="M 337.24586,357.3182 L 333.51932,351.04343 L 343.81682,344.8535 L 330.49756,347.27945 L 326.53536,341.47494 L 322.64689,349.23637 L 308.15039,351.82309 L 320.0392,353.55642 L 315.44163,361.71323 L 326.62126,354.96819 L 337.24586,357.3182 z"
         style="fill:#f9df1a;fill-opacity:1;fill-rule:nonzero;stroke:none"
         id="path5011" />
      <path
         d="M 366.80375,403.90216 L 363.00233,397.62413 L 373.39127,391.42424 L 360.07202,393.86014 L 356.02278,387.98067 L 352.14647,395.81812 L 337.63895,398.40379 L 349.60819,400.13818 L 344.93019,408.28503 L 356.10867,401.54995 L 366.80375,403.90216 z"
         style="fill:#f9df1a;fill-opacity:1;fill-rule:nonzero;stroke:none"
         id="path5013" />
      <path
         d="M 297.53134,461.37721 L 293.7189,455.17512 L 304.1067,448.98625 L 290.71256,451.33846 L 286.75036,445.53176 L 282.86189,453.29318 L 268.35552,455.87991 L 280.24873,457.61323 L 275.73257,465.77109 L 286.82524,459.025 L 297.53134,461.37721 z"
         style="fill:#f9df1a;fill-opacity:1;fill-rule:nonzero;stroke:none"
         id="path5015" />
      <path
         d="M 289.28758,354.96819 L 285.4762,348.69016 L 295.7892,342.50128 L 282.46439,344.92618 L 278.5066,339.12159 L 274.5444,346.88416 L 260.11176,349.46983 L 272.00603,351.20421 L 267.40292,359.36102 L 278.57708,352.61598 L 289.28758,354.96819 z"
         style="fill:#f9df1a;fill-opacity:1;fill-rule:nonzero;stroke:none"
         id="path5017" />
      <path
         d="M 364.42731,375.35519 L 360.62589,369.08041 L 371.00382,362.88819 L 357.69558,365.24155 L 353.73223,359.43696 L 349.75902,367.19838 L 335.33739,369.7852 L 347.23175,371.5912 L 342.62864,379.66203 L 353.73223,372.91708 L 364.42731,375.35519 z"
         style="fill:#f9df1a;fill-opacity:1;fill-rule:nonzero;stroke:none"
         id="path5019" />
      <path
         d="M 341.60115,435.5789 L 337.79973,429.30298 L 348.1722,423.1141 L 334.77797,425.539 L 330.8962,419.65961 L 326.93286,427.49697 L 312.51123,430.08264 L 324.3197,431.81712 L 319.80248,439.96062 L 330.8962,433.22554 L 341.60115,435.5789 z"
         style="fill:#f9df1a;fill-opacity:1;fill-rule:nonzero;stroke:none"
         id="path5021" />
      <path
         d="M 244.73313,474.70977 L 240.93726,468.4328 L 251.30964,462.22956 L 238.00139,464.67102 L 234.03919,458.86423 L 230.06483,466.62565 L 215.64321,469.21247 L 227.52656,470.94579 L 222.93551,479.09264 L 234.11408,472.35756 L 244.73313,474.70977 z"
         style="fill:#f9df1a;fill-opacity:1;fill-rule:nonzero;stroke:none"
         id="path5023" />
    </g>
  </g>
</svg>
