<?xml version="1.0" encoding="UTF-8" standalone="no"?>
<!-- Created with Inkscape (http://www.inkscape.org/) -->

<svg
   xmlns:dc="http://purl.org/dc/elements/1.1/"
   xmlns:cc="http://creativecommons.org/ns#"
   xmlns:rdf="http://www.w3.org/1999/02/22-rdf-syntax-ns#"
   xmlns:svg="http://www.w3.org/2000/svg"
   xmlns="http://www.w3.org/2000/svg"
   xmlns:sodipodi="http://sodipodi.sourceforge.net/DTD/sodipodi-0.dtd"
   xmlns:inkscape="http://www.inkscape.org/namespaces/inkscape"
   width="400"
   height="600"
   id="svg4716"
   version="1.1"
   inkscape:version="0.48.4 r9939"
   sodipodi:docname="iono.svg"
   inkscape:export-filename="/home/bnizette/Dropbox/ES/ES2014/Resources/images/interfacing/iono.png"
   inkscape:export-xdpi="78.333069"
   inkscape:export-ydpi="78.333069">
  <defs
     id="defs4718">
    <marker
       inkscape:stockid="Arrow2Send"
       orient="auto"
       refY="0.0"
       refX="0.0"
       id="Arrow2Send"
       style="overflow:visible;">
      <path
         id="path5525"
         style="fill-rule:evenodd;stroke-width:0.62500000;stroke-linejoin:round;"
         d="M 8.7185878,4.0337352 L -2.2072895,0.016013256 L 8.7185884,-4.0017078 C 6.9730900,-1.6296469 6.9831476,1.6157441 8.7185878,4.0337352 z "
         transform="scale(0.3) rotate(180) translate(-2.3,0)" />
    </marker>
    <marker
       inkscape:stockid="Arrow2Lend"
       orient="auto"
       refY="0.0"
       refX="0.0"
       id="Arrow2Lend"
       style="overflow:visible;">
      <path
         id="path5513"
         style="fill-rule:evenodd;stroke-width:0.62500000;stroke-linejoin:round;"
         d="M 8.7185878,4.0337352 L -2.2072895,0.016013256 L 8.7185884,-4.0017078 C 6.9730900,-1.6296469 6.9831476,1.6157441 8.7185878,4.0337352 z "
         transform="scale(1.1) rotate(180) translate(1,0)" />
    </marker>
    <marker
       inkscape:stockid="Arrow1Lend"
       orient="auto"
       refY="0.0"
       refX="0.0"
       id="Arrow1Lend"
       style="overflow:visible;">
      <path
         id="path5495"
         d="M 0.0,0.0 L 5.0,-5.0 L -12.5,0.0 L 5.0,5.0 L 0.0,0.0 z "
         style="fill-rule:evenodd;stroke:#000000;stroke-width:1.0pt;"
         transform="scale(0.8) rotate(180) translate(12.5,0)" />
    </marker>
  </defs>
  <sodipodi:namedview
     id="base"
     pagecolor="#ffffff"
     bordercolor="#666666"
     borderopacity="1.0"
     inkscape:pageopacity="0.0"
     inkscape:pageshadow="2"
     inkscape:zoom="1.4142136"
     inkscape:cx="140.78763"
     inkscape:cy="193.8522"
     inkscape:document-units="px"
     inkscape:current-layer="layer1"
     showgrid="true"
     objecttolerance="10000"
     guidetolerance="10000"
     inkscape:window-width="1920"
     inkscape:window-height="1024"
     inkscape:window-x="0"
     inkscape:window-y="27"
     inkscape:window-maximized="1">
    <inkscape:grid
       type="xygrid"
       id="grid4724"
       empspacing="5"
       visible="true"
       enabled="true"
       snapvisiblegridlinesonly="true"
       spacingx="10px"
       spacingy="10px" />
  </sodipodi:namedview>
  <metadata
     id="metadata4721">
    <rdf:RDF>
      <cc:Work
         rdf:about="">
        <dc:format>image/svg+xml</dc:format>
        <dc:type
           rdf:resource="http://purl.org/dc/dcmitype/StillImage" />
        <dc:title></dc:title>
      </cc:Work>
    </rdf:RDF>
  </metadata>
  <g
     inkscape:label="Layer 1"
     inkscape:groupmode="layer"
     id="layer1"
     transform="translate(0,-452.36218)">
    <path
       sodipodi:type="arc"
       style="fill:#cccccc;fill-opacity:1;stroke:none"
       id="path6532-3-4"
       sodipodi:cx="395"
       sodipodi:cy="575"
       sodipodi:rx="125"
       sodipodi:ry="125"
       d="M 270,574.99999 A 125,125 0 0 1 395,450 l 0,125 z"
       transform="matrix(3.752,0,0,3.752,-1082.04,-1102.0378)"
       sodipodi:start="3.1415927"
       sodipodi:end="4.712389" />
    <path
       sodipodi:type="arc"
       style="fill:#91e5e1;fill-opacity:1;stroke:none"
       id="path6532-3"
       sodipodi:cx="395"
       sodipodi:cy="575"
       sodipodi:rx="125"
       sodipodi:ry="125"
       d="M 270,574.99999 A 125,125 0 0 1 395,450 l 0,125 z"
       transform="matrix(2.504,0,0,2.504,-589.08,-386.43782)"
       sodipodi:start="3.1415927"
       sodipodi:end="4.712389" />
    <g
       style="overflow:visible"
       id="Layer_5"
       transform="matrix(0.25881905,-0.96592583,0.96592583,0.25881905,161.77584,233.53381)" />
    <g
       style="overflow:visible"
       id="g2903"
       transform="matrix(0.36934344,-0.63476981,0.63476981,0.36934344,187.59544,276.18959)"
       inkscape:transform-center-x="9.256671"
       inkscape:transform-center-y="35.117168">
      <polygon
         transform="matrix(-1,0,0,1,-196.32616,-36.774226)"
         points="168.93,51.652 249.699,0 263.86,51.352 183.091,103.005 "
         id="polygon55"
         style="fill:#666667" />
      <path
         inkscape:connector-curvature="0"
         d="m -372.30916,77.622774 c 0,0 12.522,3.461 23.303,9.845 10.781,6.384 19.823,15.692996 19.823,15.692996 l 34.207,-57.499996 c 0,0 -6.653,-12.348 -17.642,-18.854 -10.565,-6.257 -25.482,-6.683 -25.482,-6.683 l -34.209,57.499 z"
         id="path57" />
      <path
         inkscape:connector-curvature="0"
         d="m -348.81916,99.750774 c -19.72,-12.891 -41.243,-20.098 -49.737,-16.902 5.473,-2.507 27.143,-10.826 50.188,2.244 23.858,13.531 26.183,34.556996 26.165,42.378996 -1.076,-6.775 -11.099,-17.577 -26.616,-27.720996 z"
         id="path59"
         style="fill:#666667" />
      <path
         inkscape:connector-curvature="0"
         d="m -402.09916,88.708774 c -0.139,-0.985 -0.084,-1.885 0.177,-2.681 0.111,-0.342 0.26,-0.665 0.448,-0.967 0.125,-0.201 0.267,-0.394 0.427,-0.578 0.318,-0.367 0.707,-0.697 1.167,-0.988 1.379,-0.871 3.304,-1.323 5.658,-1.393 0.392,-0.012 0.796,-0.012 1.212,-0.003 0.831,0.018 1.708,0.08 2.626,0.18 0.459,0.051 0.929,0.112 1.408,0.182 0.24,0.035 0.481,0.073 0.727,0.114 0.488,0.081 0.987,0.171 1.494,0.271 0.254,0.051 0.51,0.102 0.769,0.157 0.516,0.109 1.041,0.229 1.574,0.358 10.13,2.447 23.218,8.3 35.594,16.39 12.051,7.875996 20.788,16.151996 24.596,22.629996 0.205,0.349 0.397,0.694 0.573,1.034 0.177,0.339 0.339,0.673 0.486,1.001 0.146,0.328 0.278,0.65 0.396,0.965 0.41,1.104 0.634,2.131 0.66,3.066 0.008,0.268 -10e-4,0.527 -0.026,0.78 -0.147,1.511 -0.884,2.74 -2.263,3.611 -7.357,4.647 -30.218,-2.63 -51.062,-16.256 -0.651,-0.426 -1.293,-0.853 -1.924,-1.28 -14.533,-9.838 -23.808,-20.106996 -24.717,-26.592996 z"
         id="path61"
         style="fill:#989898" />
      <rect
         x="318.13303"
         y="-171.72858"
         transform="matrix(-0.70208918,0.71208903,0.71208903,0.70208918,0,0)"
         width="49.895771"
         height="2.4550378"
         id="rect63" />
      <rect
         x="-232.8824"
         y="334.53503"
         transform="matrix(0.24909464,-0.96847915,-0.96847915,-0.24909464,0,0)"
         width="49.895077"
         height="2.4540529"
         id="rect65" />
      <path
         inkscape:connector-curvature="0"
         d="m -379.06216,135.42277 22.197,-40.318996 c 0.891,0.273 1.691,0.455 2.214,1.07 l -22.261,40.432996 -2.15,-1.184 z"
         id="path67" />
      <circle
         transform="matrix(-1,0,0,1,-196.32616,-36.774226)"
         cx="184.314"
         cy="176.851"
         r="6.6620002"
         id="circle69"
         d="m 190.976,176.851 c 0,3.67932 -2.98268,6.662 -6.662,6.662 -3.67933,0 -6.662,-2.98268 -6.662,-6.662 0,-3.67932 2.98267,-6.662 6.662,-6.662 3.67932,0 6.662,2.98268 6.662,6.662 z"
         sodipodi:cx="184.314"
         sodipodi:cy="176.851"
         sodipodi:rx="6.6620002"
         sodipodi:ry="6.6620002" />
      <polygon
         transform="matrix(-1,0,0,1,-196.32616,-36.774226)"
         points="13.282,152.997 96.979,99.375 110.624,151.075 26.927,204.696 "
         id="polygon71"
         style="fill:#666667" />
      <path
         inkscape:connector-curvature="0"
         d="m -293.80516,91.426774 -2.529,3.574 -23.545,-15.261 c 0.268,-0.568 2.182,-3.293 2.52,-3.79 l 23.554,15.477 z"
         id="path73" />
      <path
         inkscape:connector-curvature="0"
         d="m -354.31216,52.726774 -2.529,3.574 -23.546,-15.261 c 0.269,-0.569 2.182,-3.294 2.521,-3.791 l 23.554,15.478 z"
         id="path75" />
    </g>
    <path
       style="fill:none;stroke:#22d90a;stroke-width:3;stroke-linecap:butt;stroke-linejoin:miter;stroke-miterlimit:4;stroke-opacity:1;stroke-dasharray:none;marker-end:url(#Arrow2Send)"
       d="m 140,582.36218 c 60,280 60,280 60,280"
       id="path4978"
       inkscape:connector-curvature="0"
       sodipodi:nodetypes="cc" />
    <path
       sodipodi:type="arc"
       style="fill:#26a23d;fill-opacity:1;stroke:none;stroke-width:1.44787645000000009;stroke-linecap:butt;stroke-miterlimit:4;stroke-opacity:1;stroke-dasharray:none;stroke-dashoffset:0"
       id="path6532"
       sodipodi:cx="395"
       sodipodi:cy="575"
       sodipodi:rx="125"
       sodipodi:ry="125"
       d="M 270,574.99999 A 125,125 0 0 1 395,450 l 0,125 z"
       transform="matrix(2.072,0,0,2.072,-416.44,-136.03782)"
       sodipodi:start="3.1415927"
       sodipodi:end="4.712389" />
    <g
       id="g10"
       transform="matrix(2.8481479,0,0,-2.8481479,168.47089,931.7905)">
      <g
         id="g6008"
         transform="matrix(0.32503,0,0,0.32503,-100.86,-132.32)">
        <g
           id="g5704"
           transform="translate(362.96,472.25)">
          <path
             style="fill:#6f6c6d;fill-rule:evenodd"
             inkscape:connector-curvature="0"
             id="path5706"
             d="m 0,0 c 0,-4.93 -3.997,-8.927 -8.927,-8.927 -4.929,0 -8.927,3.997 -8.927,8.927 0,4.93 3.998,8.927 8.927,8.927 C -3.997,8.927 0,4.93 0,0" />
        </g>
        <g
           id="g5708"
           transform="translate(362.69,459.83)">
          <path
             style="fill:#6f6c6d;fill-rule:evenodd"
             inkscape:connector-curvature="0"
             id="path5710"
             d="m 0,0 c -1.353,0.946 -3.808,1.721 -5.458,1.721 h -6 c -1.65,0 -4.105,-0.775 -5.458,-1.721 L -17,-0.059 c -1.353,-0.946 -2.458,-3.07 -2.458,-4.72 v -11.625 c 0,-1.651 0.562,-4.097 1.25,-5.438 0.687,-1.341 1.475,-2.437 1.75,-2.437 0.275,0 0.722,-1.332 0.993,-2.959 l 2.014,-12.082 c 0.271,-1.627 1.506,-2.959 2.743,-2.959 h 4.5 c 1.237,0 2.472,1.332 2.743,2.959 l 2.014,12.082 c 0.271,1.627 0.718,2.959 0.993,2.959 0.275,0 1.062,1.096 1.75,2.437 0.687,1.341 1.25,3.787 1.25,5.438 v 11.625 c 0,1.65 -1.105,3.774 -2.458,4.72 L 0,0 z" />
        </g>
      </g>
    </g>
    <path
       style="fill:none;stroke:#be0000;stroke-width:3;stroke-linecap:butt;stroke-linejoin:miter;stroke-miterlimit:4;stroke-opacity:1;stroke-dasharray:none;marker-end:url(#Arrow2Send)"
       d="m 143,587.36218 -3,75 30,180 20,20"
       id="path6306"
       inkscape:connector-curvature="0"
       sodipodi:nodetypes="cccc" />
  </g>
</svg>
