<?xml version="1.0" encoding="UTF-8" standalone="no"?>
<!-- Generator: Adobe Illustrator 13.0.0, SVG Export Plug-In . SVG Version: 6.00 Build 14576)  -->

<svg
   xmlns:dc="http://purl.org/dc/elements/1.1/"
   xmlns:cc="http://creativecommons.org/ns#"
   xmlns:rdf="http://www.w3.org/1999/02/22-rdf-syntax-ns#"
   xmlns:svg="http://www.w3.org/2000/svg"
   xmlns="http://www.w3.org/2000/svg"
   xmlns:sodipodi="http://sodipodi.sourceforge.net/DTD/sodipodi-0.dtd"
   xmlns:inkscape="http://www.inkscape.org/namespaces/inkscape"
   version="1.0"
   id="Layer_1"
   x="0px"
   y="0px"
   width="800px"
   height="600px"
   viewBox="0 0 800 600"
   enable-background="new 0 0 800 600"
   xml:space="preserve"
   inkscape:version="0.48.4 r9939"
   sodipodi:docname="Nand_flash_structure.svg"
   inkscape:export-filename="/home/bennizette/Dropbox/ES/ES2014/Resources/images/comm-mem/nand.png"
   inkscape:export-xdpi="90"
   inkscape:export-ydpi="90"><metadata
     id="metadata319"><rdf:RDF><cc:Work
         rdf:about=""><dc:format>image/svg+xml</dc:format><dc:type
           rdf:resource="http://purl.org/dc/dcmitype/StillImage" /><dc:title></dc:title></cc:Work></rdf:RDF></metadata><defs
     id="defs317" /><sodipodi:namedview
     pagecolor="#ffffff"
     bordercolor="#666666"
     borderopacity="1"
     objecttolerance="10"
     gridtolerance="10"
     guidetolerance="10"
     inkscape:pageopacity="0"
     inkscape:pageshadow="2"
     inkscape:window-width="1440"
     inkscape:window-height="834"
     id="namedview315"
     showgrid="false"
     inkscape:zoom="0.36375"
     inkscape:cx="405.49828"
     inkscape:cy="300"
     inkscape:window-x="0"
     inkscape:window-y="27"
     inkscape:window-maximized="1"
     inkscape:current-layer="Layer_1" /><rect
     x="48"
     y="376"
     fill="#662D91"
     stroke="#000000"
     width="704"
     height="46"
     id="rect3" /><path
     fill="#00FFFF"
     stroke="#000000"
     d="M128,376v8c0,0,0,8,8,8s16,0,16,0s8,0,8-8s0-8,0-8"
     id="path5" /><path
     fill="#00FFFF"
     stroke="#000000"
     d="M64,376v8c0,0,0,8,8,8s16,0,16,0s8,0,8-8s0-8,0-8"
     id="path7" /><path
     fill="#00FFFF"
     stroke="#000000"
     d="M192,376v8c0,0,0,8,8,8s16,0,16,0s8,0,8-8s0-8,0-8"
     id="path9" /><path
     fill="#00FFFF"
     stroke="#000000"
     d="M256,376v8c0,0,0,8,8,8s16,0,16,0s8,0,8-8s0-8,0-8"
     id="path11" /><path
     fill="#00FFFF"
     stroke="#000000"
     d="M320,376v8c0,0,0,8,8,8s16,0,16,0s8,0,8-8s0-8,0-8"
     id="path13" /><path
     fill="#00FFFF"
     stroke="#000000"
     d="M384,376v8c0,0,0,8,8,8s16,0,16,0s8,0,8-8s0-8,0-8"
     id="path15" /><path
     fill="#00FFFF"
     stroke="#000000"
     d="M448,376v8c0,0,0,8,8,8s16,0,16,0s8,0,8-8s0-8,0-8"
     id="path17" /><path
     fill="#00FFFF"
     stroke="#000000"
     d="M512,376v8c0,0,0,8,8,8s16,0,16,0s8,0,8-8s0-8,0-8"
     id="path19" /><path
     fill="#00FFFF"
     stroke="#000000"
     d="M576,376v8c0,0,0,8,8,8s16,0,16,0s8,0,8-8s0-8,0-8"
     id="path21" /><path
     fill="#00FFFF"
     stroke="#000000"
     d="M640,376v8c0,0,0,8,8,8s16,0,16,0s8,0,8-8s0-8,0-8"
     id="path23" /><path
     fill="#00FFFF"
     stroke="#000000"
     d="M704,376v8c0,0,0,8,8,8s16,0,16,0s8,0,8-8s0-8,0-8"
     id="path25" /><rect
     x="96"
     y="360"
     fill="#B3B3B3"
     stroke="#000000"
     width="32"
     height="12"
     id="rect27" /><rect
     x="156"
     y="366"
     fill="#B3B3B3"
     stroke="#000000"
     width="40"
     height="8"
     id="rect29" /><rect
     x="156"
     y="356"
     fill="#B3B3B3"
     stroke="#000000"
     width="40"
     height="8"
     id="rect31" /><rect
     x="220"
     y="366"
     fill="#B3B3B3"
     stroke="#000000"
     width="40"
     height="8"
     id="rect33" /><rect
     x="220"
     y="356"
     fill="#B3B3B3"
     stroke="#000000"
     width="40"
     height="8"
     id="rect35" /><rect
     x="284"
     y="366"
     fill="#B3B3B3"
     stroke="#000000"
     width="40"
     height="8"
     id="rect37" /><rect
     x="284"
     y="356"
     fill="#B3B3B3"
     stroke="#000000"
     width="40"
     height="8"
     id="rect39" /><rect
     x="348"
     y="366"
     fill="#B3B3B3"
     stroke="#000000"
     width="40"
     height="8"
     id="rect41" /><rect
     x="348"
     y="356"
     fill="#B3B3B3"
     stroke="#000000"
     width="40"
     height="8"
     id="rect43" /><rect
     x="412"
     y="366"
     fill="#B3B3B3"
     stroke="#000000"
     width="40"
     height="8"
     id="rect45" /><rect
     x="412"
     y="356"
     fill="#B3B3B3"
     stroke="#000000"
     width="40"
     height="8"
     id="rect47" /><rect
     x="476"
     y="366"
     fill="#B3B3B3"
     stroke="#000000"
     width="40"
     height="8"
     id="rect49" /><rect
     x="476"
     y="356"
     fill="#B3B3B3"
     stroke="#000000"
     width="40"
     height="8"
     id="rect51" /><rect
     x="540"
     y="366"
     fill="#B3B3B3"
     stroke="#000000"
     width="40"
     height="8"
     id="rect53" /><rect
     x="540"
     y="356"
     fill="#B3B3B3"
     stroke="#000000"
     width="40"
     height="8"
     id="rect55" /><rect
     x="604"
     y="366"
     fill="#B3B3B3"
     stroke="#000000"
     width="40"
     height="8"
     id="rect57" /><rect
     x="604"
     y="356"
     fill="#B3B3B3"
     stroke="#000000"
     width="40"
     height="8"
     id="rect59" /><rect
     x="672"
     y="360"
     fill="#B3B3B3"
     stroke="#000000"
     width="32"
     height="12"
     id="rect61" /><rect
     x="70"
     y="344"
     fill="#F7931E"
     stroke="#000000"
     width="18"
     height="32"
     id="rect63" /><rect
     x="712"
     y="344"
     fill="#F7931E"
     stroke="#000000"
     width="16"
     height="32"
     id="rect65" /><line
     fill="none"
     stroke="#000000"
     stroke-width="2"
     x1="34"
     y1="136"
     x2="754"
     y2="136"
     id="line67" /><line
     fill="none"
     stroke="#000000"
     stroke-width="2"
     x1="720"
     y1="136"
     x2="720"
     y2="244"
     id="line69" /><line
     fill="none"
     stroke="#000000"
     stroke-width="2"
     x1="720"
     y1="244"
     x2="704"
     y2="244"
     id="line71" /><g
     id="g73"><line
       fill="none"
       stroke="#000000"
       stroke-width="2"
       x1="704"
       y1="244"
       x2="704"
       y2="216"
       id="line75" /><line
       fill="none"
       stroke="#000000"
       stroke-width="2"
       x1="672"
       y1="216"
       x2="704"
       y2="216"
       id="line77" /><line
       fill="none"
       stroke="#000000"
       stroke-width="2"
       x1="672"
       y1="216"
       x2="672"
       y2="244"
       id="line79" /><line
       fill="none"
       stroke="#000000"
       stroke-width="2"
       x1="672"
       y1="244"
       x2="640"
       y2="244"
       id="line81" /><line
       fill="none"
       stroke="#000000"
       stroke-width="2"
       x1="640"
       y1="244"
       x2="640"
       y2="216"
       id="line83" /><line
       fill="none"
       stroke="#000000"
       stroke-width="2"
       x1="608"
       y1="216"
       x2="640"
       y2="216"
       id="line85" /><line
       fill="none"
       stroke="#000000"
       stroke-width="2"
       x1="608"
       y1="216"
       x2="608"
       y2="244"
       id="line87" /><line
       fill="none"
       stroke="#000000"
       stroke-width="2"
       x1="608"
       y1="244"
       x2="576"
       y2="244"
       id="line89" /></g><g
     id="g91"><line
       fill="none"
       stroke="#000000"
       stroke-width="2"
       x1="576"
       y1="244"
       x2="576"
       y2="216"
       id="line93" /><line
       fill="none"
       stroke="#000000"
       stroke-width="2"
       x1="544"
       y1="216"
       x2="576"
       y2="216"
       id="line95" /><line
       fill="none"
       stroke="#000000"
       stroke-width="2"
       x1="544"
       y1="216"
       x2="544"
       y2="244"
       id="line97" /><line
       fill="none"
       stroke="#000000"
       stroke-width="2"
       x1="544"
       y1="244"
       x2="512"
       y2="244"
       id="line99" /><line
       fill="none"
       stroke="#000000"
       stroke-width="2"
       x1="512"
       y1="244"
       x2="512"
       y2="216"
       id="line101" /><line
       fill="none"
       stroke="#000000"
       stroke-width="2"
       x1="480"
       y1="216"
       x2="512"
       y2="216"
       id="line103" /><line
       fill="none"
       stroke="#000000"
       stroke-width="2"
       x1="480"
       y1="216"
       x2="480"
       y2="244"
       id="line105" /><line
       fill="none"
       stroke="#000000"
       stroke-width="2"
       x1="480"
       y1="244"
       x2="448"
       y2="244"
       id="line107" /></g><g
     id="g109"><line
       fill="none"
       stroke="#000000"
       stroke-width="2"
       x1="448"
       y1="244"
       x2="448"
       y2="216"
       id="line111" /><line
       fill="none"
       stroke="#000000"
       stroke-width="2"
       x1="416"
       y1="216"
       x2="448"
       y2="216"
       id="line113" /><line
       fill="none"
       stroke="#000000"
       stroke-width="2"
       x1="416"
       y1="216"
       x2="416"
       y2="244"
       id="line115" /><line
       fill="none"
       stroke="#000000"
       stroke-width="2"
       x1="416"
       y1="244"
       x2="384"
       y2="244"
       id="line117" /><line
       fill="none"
       stroke="#000000"
       stroke-width="2"
       x1="384"
       y1="244"
       x2="384"
       y2="216"
       id="line119" /><line
       fill="none"
       stroke="#000000"
       stroke-width="2"
       x1="352"
       y1="216"
       x2="384"
       y2="216"
       id="line121" /><line
       fill="none"
       stroke="#000000"
       stroke-width="2"
       x1="352"
       y1="216"
       x2="352"
       y2="244"
       id="line123" /><line
       fill="none"
       stroke="#000000"
       stroke-width="2"
       x1="352"
       y1="244"
       x2="320"
       y2="244"
       id="line125" /></g><g
     id="g127"><line
       fill="none"
       stroke="#000000"
       stroke-width="2"
       x1="320"
       y1="244"
       x2="320"
       y2="216"
       id="line129" /><line
       fill="none"
       stroke="#000000"
       stroke-width="2"
       x1="288"
       y1="216"
       x2="320"
       y2="216"
       id="line131" /><line
       fill="none"
       stroke="#000000"
       stroke-width="2"
       x1="288"
       y1="216"
       x2="288"
       y2="244"
       id="line133" /><line
       fill="none"
       stroke="#000000"
       stroke-width="2"
       x1="288"
       y1="244"
       x2="256"
       y2="244"
       id="line135" /><line
       fill="none"
       stroke="#000000"
       stroke-width="2"
       x1="256"
       y1="244"
       x2="256"
       y2="216"
       id="line137" /><line
       fill="none"
       stroke="#000000"
       stroke-width="2"
       x1="224"
       y1="216"
       x2="256"
       y2="216"
       id="line139" /><line
       fill="none"
       stroke="#000000"
       stroke-width="2"
       x1="224"
       y1="216"
       x2="224"
       y2="244"
       id="line141" /><line
       fill="none"
       stroke="#000000"
       stroke-width="2"
       x1="224"
       y1="244"
       x2="192"
       y2="244"
       id="line143" /></g><line
     fill="none"
     stroke="#000000"
     stroke-width="2"
     x1="192"
     y1="244"
     x2="192"
     y2="216"
     id="line145" /><line
     fill="none"
     stroke="#000000"
     stroke-width="2"
     x1="160"
     y1="216"
     x2="192"
     y2="216"
     id="line147" /><line
     fill="none"
     stroke="#000000"
     stroke-width="2"
     x1="160"
     y1="216"
     x2="160"
     y2="244"
     id="line149" /><line
     fill="none"
     stroke="#000000"
     stroke-width="2"
     x1="160"
     y1="244"
     x2="128"
     y2="244"
     id="line151" /><line
     fill="none"
     stroke="#000000"
     stroke-width="2"
     x1="128"
     y1="244"
     x2="128"
     y2="216"
     id="line153" /><line
     fill="none"
     stroke="#000000"
     stroke-width="2"
     x1="96"
     y1="216"
     x2="128"
     y2="216"
     id="line155" /><line
     fill="none"
     stroke="#000000"
     stroke-width="2"
     x1="96"
     y1="216"
     x2="96"
     y2="244"
     id="line157" /><line
     fill="none"
     stroke="#000000"
     stroke-width="2"
     x1="96"
     y1="244"
     x2="80"
     y2="244"
     id="line159" /><line
     fill="none"
     stroke="#000000"
     stroke-width="2"
     x1="80"
     y1="264"
     x2="80"
     y2="244"
     id="line161" /><line
     fill="none"
     stroke="#000000"
     stroke-width="2"
     x1="96"
     y1="208"
     x2="128"
     y2="208"
     id="line163" /><line
     fill="none"
     stroke="#000000"
     stroke-width="2"
     x1="160"
     y1="210"
     x2="192"
     y2="210"
     id="line165" /><line
     fill="none"
     stroke="#000000"
     stroke-width="2"
     x1="160"
     y1="206"
     x2="192"
     y2="206"
     id="line167" /><line
     fill="none"
     stroke="#000000"
     stroke-width="2"
     x1="112"
     y1="192"
     x2="112"
     y2="208"
     id="line169" /><line
     fill="none"
     stroke="#000000"
     stroke-width="2"
     x1="176"
     y1="192"
     x2="176"
     y2="206"
     id="line171" /><line
     fill="none"
     stroke="#000000"
     stroke-width="2"
     x1="224"
     y1="210"
     x2="256"
     y2="210"
     id="line173" /><line
     fill="none"
     stroke="#000000"
     stroke-width="2"
     x1="224"
     y1="206"
     x2="256"
     y2="206"
     id="line175" /><line
     fill="none"
     stroke="#000000"
     stroke-width="2"
     x1="240"
     y1="192"
     x2="240"
     y2="206"
     id="line177" /><line
     fill="none"
     stroke="#000000"
     stroke-width="2"
     x1="288"
     y1="210"
     x2="320"
     y2="210"
     id="line179" /><line
     fill="none"
     stroke="#000000"
     stroke-width="2"
     x1="288"
     y1="206"
     x2="320"
     y2="206"
     id="line181" /><line
     fill="none"
     stroke="#000000"
     stroke-width="2"
     x1="304"
     y1="192"
     x2="304"
     y2="206"
     id="line183" /><line
     fill="none"
     stroke="#000000"
     stroke-width="2"
     x1="352"
     y1="210"
     x2="384"
     y2="210"
     id="line185" /><line
     fill="none"
     stroke="#000000"
     stroke-width="2"
     x1="352"
     y1="206"
     x2="384"
     y2="206"
     id="line187" /><line
     fill="none"
     stroke="#000000"
     stroke-width="2"
     x1="368"
     y1="192"
     x2="368"
     y2="206"
     id="line189" /><line
     fill="none"
     stroke="#000000"
     stroke-width="2"
     x1="416"
     y1="210"
     x2="448"
     y2="210"
     id="line191" /><line
     fill="none"
     stroke="#000000"
     stroke-width="2"
     x1="416"
     y1="206"
     x2="448"
     y2="206"
     id="line193" /><line
     fill="none"
     stroke="#000000"
     stroke-width="2"
     x1="432"
     y1="192"
     x2="432"
     y2="206"
     id="line195" /><line
     fill="none"
     stroke="#000000"
     stroke-width="2"
     x1="480"
     y1="210"
     x2="512"
     y2="210"
     id="line197" /><line
     fill="none"
     stroke="#000000"
     stroke-width="2"
     x1="480"
     y1="206"
     x2="512"
     y2="206"
     id="line199" /><line
     fill="none"
     stroke="#000000"
     stroke-width="2"
     x1="496"
     y1="192"
     x2="496"
     y2="206"
     id="line201" /><line
     fill="none"
     stroke="#000000"
     stroke-width="2"
     x1="544"
     y1="210"
     x2="576"
     y2="210"
     id="line203" /><line
     fill="none"
     stroke="#000000"
     stroke-width="2"
     x1="544"
     y1="206"
     x2="576"
     y2="206"
     id="line205" /><line
     fill="none"
     stroke="#000000"
     stroke-width="2"
     x1="560"
     y1="192"
     x2="560"
     y2="206"
     id="line207" /><line
     fill="none"
     stroke="#000000"
     stroke-width="2"
     x1="608"
     y1="210"
     x2="640"
     y2="210"
     id="line209" /><line
     fill="none"
     stroke="#000000"
     stroke-width="2"
     x1="608"
     y1="206"
     x2="640"
     y2="206"
     id="line211" /><line
     fill="none"
     stroke="#000000"
     stroke-width="2"
     x1="624"
     y1="192"
     x2="624"
     y2="206"
     id="line213" /><line
     fill="none"
     stroke="#000000"
     stroke-width="2"
     x1="672"
     y1="208"
     x2="704"
     y2="208"
     id="line215" /><line
     fill="none"
     stroke="#000000"
     stroke-width="2"
     x1="688"
     y1="192"
     x2="688"
     y2="208"
     id="line217" /><line
     fill="none"
     stroke="#000000"
     stroke-width="2"
     x1="72"
     y1="264"
     x2="88"
     y2="264"
     id="line219" /><line
     fill="none"
     stroke="#000000"
     stroke-width="2"
     x1="74"
     y1="268"
     x2="86"
     y2="268"
     id="line221" /><line
     fill="none"
     stroke="#000000"
     stroke-width="2"
     x1="78"
     y1="272"
     x2="82"
     y2="272"
     id="line223" /><text
     transform="matrix(1 0 0 1 161.665 172)"
     id="text225"><tspan
       x="0"
       y="0"
       font-family="'ArialMT'"
       font-size="12"
       id="tspan227">Word</tspan><tspan
       x="-2.013"
       y="14.4"
       font-family="'ArialMT'"
       font-size="12"
       id="tspan229">Line 0</tspan></text>
<text
     transform="matrix(1 0 0 1 225.665 172)"
     id="text231"><tspan
       x="0"
       y="0"
       font-family="'ArialMT'"
       font-size="12"
       id="tspan233">Word</tspan><tspan
       x="-2.013"
       y="14.4"
       font-family="'ArialMT'"
       font-size="12"
       id="tspan235">Line 1</tspan></text>
<text
     transform="matrix(1 0 0 1 287.665 172)"
     id="text237"><tspan
       x="0"
       y="0"
       font-family="'ArialMT'"
       font-size="12"
       id="tspan239">Word</tspan><tspan
       x="-2.013"
       y="14.4"
       font-family="'ArialMT'"
       font-size="12"
       id="tspan241">Line 2</tspan></text>
<text
     transform="matrix(1 0 0 1 351.665 172)"
     id="text243"><tspan
       x="0"
       y="0"
       font-family="'ArialMT'"
       font-size="12"
       id="tspan245">Word</tspan><tspan
       x="-2.013"
       y="14.4"
       font-family="'ArialMT'"
       font-size="12"
       id="tspan247">Line 3</tspan></text>
<text
     transform="matrix(1 0 0 1 415.665 172)"
     id="text249"><tspan
       x="0"
       y="0"
       font-family="'ArialMT'"
       font-size="12"
       id="tspan251">Word</tspan><tspan
       x="-2.013"
       y="14.4"
       font-family="'ArialMT'"
       font-size="12"
       id="tspan253">Line 4</tspan></text>
<text
     transform="matrix(1 0 0 1 479.665 172)"
     id="text255"><tspan
       x="0"
       y="0"
       font-family="'ArialMT'"
       font-size="12"
       id="tspan257">Word</tspan><tspan
       x="-2.013"
       y="14.4"
       font-family="'ArialMT'"
       font-size="12"
       id="tspan259">Line 5</tspan></text>
<text
     transform="matrix(1 0 0 1 541.665 172)"
     id="text261"><tspan
       x="0"
       y="0"
       font-family="'ArialMT'"
       font-size="12"
       id="tspan263">Word</tspan><tspan
       x="-2.013"
       y="14.4"
       font-family="'ArialMT'"
       font-size="12"
       id="tspan265">Line 6</tspan></text>
<text
     transform="matrix(1 0 0 1 605.665 172)"
     id="text267"><tspan
       x="0"
       y="0"
       font-family="'ArialMT'"
       font-size="12"
       id="tspan269">Word</tspan><tspan
       x="-2.013"
       y="14.4"
       font-family="'ArialMT'"
       font-size="12"
       id="tspan271">Line 7</tspan></text>
<text
     transform="matrix(1 0 0 1 667.9873 158)"
     id="text273"><tspan
       x="0"
       y="0"
       font-family="'ArialMT'"
       font-size="12"
       id="tspan275">Bit Line</tspan><tspan
       x="3.337"
       y="14.4"
       font-family="'ArialMT'"
       font-size="12"
       id="tspan277">Select</tspan><tspan
       x="-6.659"
       y="28.8"
       font-family="'ArialMT'"
       font-size="12"
       id="tspan279">Transistor</tspan></text>
<text
     transform="matrix(1 0 0 1 91.9873 158)"
     id="text281"><tspan
       x="0"
       y="0"
       font-family="'ArialMT'"
       font-size="12"
       id="tspan283">Ground</tspan><tspan
       x="3.337"
       y="14.4"
       font-family="'ArialMT'"
       font-size="12"
       id="tspan285">Select</tspan><tspan
       x="-6.659"
       y="28.8"
       font-family="'ArialMT'"
       font-size="12"
       id="tspan287">Transistor</tspan></text>
<text
     transform="matrix(1 0 0 1 683.9873 128)"
     font-family="'ArialMT'"
     font-size="12"
     id="text289">Bit Line</text>
<text
     transform="matrix(1 0 0 1 75.667 388)"
     font-family="'ArialMT'"
     font-size="12"
     id="text291">N</text>
<text
     transform="matrix(1 0 0 1 139.667 388)"
     font-family="'ArialMT'"
     font-size="12"
     id="text293">N</text>
<text
     transform="matrix(1 0 0 1 203.667 388)"
     font-family="'ArialMT'"
     font-size="12"
     id="text295">N</text>
<text
     transform="matrix(1 0 0 1 267.667 388)"
     font-family="'ArialMT'"
     font-size="12"
     id="text297">N</text>
<text
     transform="matrix(1 0 0 1 331.667 388)"
     font-family="'ArialMT'"
     font-size="12"
     id="text299">N</text>
<text
     transform="matrix(1 0 0 1 395.667 388)"
     font-family="'ArialMT'"
     font-size="12"
     id="text301">N</text>
<text
     transform="matrix(1 0 0 1 459.667 388)"
     font-family="'ArialMT'"
     font-size="12"
     id="text303">N</text>
<text
     transform="matrix(1 0 0 1 523.667 388)"
     font-family="'ArialMT'"
     font-size="12"
     id="text305">N</text>
<text
     transform="matrix(1 0 0 1 587.667 388)"
     font-family="'ArialMT'"
     font-size="12"
     id="text307">N</text>
<text
     transform="matrix(1 0 0 1 651.667 388)"
     font-family="'ArialMT'"
     font-size="12"
     id="text309">N</text>
<text
     transform="matrix(1 0 0 1 715.667 388)"
     font-family="'ArialMT'"
     font-size="12"
     id="text311">N</text>
<text
     transform="matrix(1 0 0 1 393.998 410)"
     font-family="'ArialMT'"
     font-size="12"
     id="text313">P</text>
</svg>