<?xml version="1.0" encoding="UTF-8" standalone="no"?>
<!-- Generator: Adobe Illustrator 13.0.0, SVG Export Plug-In . SVG Version: 6.00 Build 14576)  -->

<svg
   xmlns:dc="http://purl.org/dc/elements/1.1/"
   xmlns:cc="http://creativecommons.org/ns#"
   xmlns:rdf="http://www.w3.org/1999/02/22-rdf-syntax-ns#"
   xmlns:svg="http://www.w3.org/2000/svg"
   xmlns="http://www.w3.org/2000/svg"
   xmlns:sodipodi="http://sodipodi.sourceforge.net/DTD/sodipodi-0.dtd"
   xmlns:inkscape="http://www.inkscape.org/namespaces/inkscape"
   version="1.0"
   id="Layer_1"
   x="0px"
   y="0px"
   width="800px"
   height="600px"
   viewBox="0 0 800 600"
   enable-background="new 0 0 800 600"
   xml:space="preserve"
   inkscape:version="0.48.4 r9939"
   sodipodi:docname="NOR_flash_layout.svg"
   inkscape:export-filename="/home/bennizette/Dropbox/ES/ES2014/Resources/images/comm-mem/nor.png"
   inkscape:export-xdpi="90"
   inkscape:export-ydpi="90"><metadata
     id="metadata237"><rdf:RDF><cc:Work
         rdf:about=""><dc:format>image/svg+xml</dc:format><dc:type
           rdf:resource="http://purl.org/dc/dcmitype/StillImage" /><dc:title></dc:title></cc:Work></rdf:RDF></metadata><defs
     id="defs235" /><sodipodi:namedview
     pagecolor="#ffffff"
     bordercolor="#666666"
     borderopacity="1"
     objecttolerance="10"
     gridtolerance="10"
     guidetolerance="10"
     inkscape:pageopacity="0"
     inkscape:pageshadow="2"
     inkscape:window-width="1440"
     inkscape:window-height="834"
     id="namedview233"
     showgrid="false"
     inkscape:zoom="0.36375"
     inkscape:cx="405.49828"
     inkscape:cy="300"
     inkscape:window-x="0"
     inkscape:window-y="27"
     inkscape:window-maximized="1"
     inkscape:current-layer="Layer_1" /><rect
     x="48"
     y="410"
     fill="#662D91"
     stroke="#000000"
     width="704"
     height="46"
     id="rect3" /><path
     fill="#00FFFF"
     stroke="#000000"
     d="M168.001,410v8c0,0,0,8,16,8C200,426,216,426,216,426s16,0,16-8s0-8,0-8"
     id="path5" /><line
     fill="none"
     stroke="#000000"
     stroke-width="2"
     x1="40"
     y1="194"
     x2="760"
     y2="194"
     id="line7" /><line
     fill="none"
     stroke="#000000"
     stroke-width="2"
     x1="680"
     y1="196"
     x2="680"
     y2="302"
     id="line9" /><line
     fill="none"
     stroke="#000000"
     stroke-width="2"
     x1="680"
     y1="302"
     x2="644"
     y2="302"
     id="line11" /><line
     fill="none"
     stroke="#000000"
     stroke-width="2"
     x1="644"
     y1="302"
     x2="644"
     y2="274"
     id="line13" /><line
     fill="none"
     stroke="#000000"
     stroke-width="2"
     x1="612"
     y1="274"
     x2="644"
     y2="274"
     id="line15" /><line
     fill="none"
     stroke="#000000"
     stroke-width="2"
     x1="612"
     y1="274"
     x2="612"
     y2="302"
     id="line17" /><line
     fill="none"
     stroke="#000000"
     stroke-width="2"
     x1="550"
     y1="302"
     x2="550"
     y2="274"
     id="line19" /><line
     fill="none"
     stroke="#000000"
     stroke-width="2"
     x1="518"
     y1="274"
     x2="550"
     y2="274"
     id="line21" /><line
     fill="none"
     stroke="#000000"
     stroke-width="2"
     x1="518"
     y1="274"
     x2="518"
     y2="302"
     id="line23" /><line
     fill="none"
     stroke="#000000"
     stroke-width="2"
     x1="454"
     y1="302"
     x2="454"
     y2="274"
     id="line25" /><line
     fill="none"
     stroke="#000000"
     stroke-width="2"
     x1="422"
     y1="274"
     x2="454"
     y2="274"
     id="line27" /><line
     fill="none"
     stroke="#000000"
     stroke-width="2"
     x1="422"
     y1="274"
     x2="422"
     y2="302"
     id="line29" /><line
     fill="none"
     stroke="#000000"
     stroke-width="2"
     x1="360"
     y1="302"
     x2="360"
     y2="274"
     id="line31" /><line
     fill="none"
     stroke="#000000"
     stroke-width="2"
     x1="328"
     y1="274"
     x2="360"
     y2="274"
     id="line33" /><line
     fill="none"
     stroke="#000000"
     stroke-width="2"
     x1="328"
     y1="274"
     x2="328"
     y2="302"
     id="line35" /><line
     fill="none"
     stroke="#000000"
     stroke-width="2"
     x1="264"
     y1="302"
     x2="264"
     y2="274"
     id="line37" /><line
     fill="none"
     stroke="#000000"
     stroke-width="2"
     x1="232"
     y1="274"
     x2="264"
     y2="274"
     id="line39" /><line
     fill="none"
     stroke="#000000"
     stroke-width="2"
     x1="232"
     y1="274"
     x2="232"
     y2="302"
     id="line41" /><line
     fill="none"
     stroke="#000000"
     stroke-width="2"
     x1="232"
     y1="302"
     x2="170"
     y2="302"
     id="line43" /><line
     fill="none"
     stroke="#000000"
     stroke-width="2"
     x1="170"
     y1="302"
     x2="170"
     y2="274"
     id="line45" /><line
     fill="none"
     stroke="#000000"
     stroke-width="2"
     x1="138"
     y1="274"
     x2="170"
     y2="274"
     id="line47" /><line
     fill="none"
     stroke="#000000"
     stroke-width="2"
     x1="138"
     y1="274"
     x2="138"
     y2="302"
     id="line49" /><line
     fill="none"
     stroke="#000000"
     stroke-width="2"
     x1="138"
     y1="302"
     x2="104"
     y2="302"
     id="line51" /><line
     fill="none"
     stroke="#000000"
     stroke-width="2"
     x1="138"
     y1="268"
     x2="170"
     y2="268"
     id="line53" /><line
     fill="none"
     stroke="#000000"
     stroke-width="2"
     x1="138"
     y1="264"
     x2="170"
     y2="264"
     id="line55" /><line
     fill="none"
     stroke="#000000"
     stroke-width="2"
     x1="154"
     y1="250"
     x2="154"
     y2="264"
     id="line57" /><line
     fill="none"
     stroke="#000000"
     stroke-width="2"
     x1="232"
     y1="268"
     x2="264"
     y2="268"
     id="line59" /><line
     fill="none"
     stroke="#000000"
     stroke-width="2"
     x1="232"
     y1="264"
     x2="264"
     y2="264"
     id="line61" /><line
     fill="none"
     stroke="#000000"
     stroke-width="2"
     x1="248"
     y1="250"
     x2="248"
     y2="264"
     id="line63" /><line
     fill="none"
     stroke="#000000"
     stroke-width="2"
     x1="328"
     y1="268"
     x2="360"
     y2="268"
     id="line65" /><line
     fill="none"
     stroke="#000000"
     stroke-width="2"
     x1="328"
     y1="264"
     x2="360"
     y2="264"
     id="line67" /><line
     fill="none"
     stroke="#000000"
     stroke-width="2"
     x1="344"
     y1="250"
     x2="344"
     y2="264"
     id="line69" /><line
     fill="none"
     stroke="#000000"
     stroke-width="2"
     x1="422"
     y1="268"
     x2="454"
     y2="268"
     id="line71" /><line
     fill="none"
     stroke="#000000"
     stroke-width="2"
     x1="422"
     y1="264"
     x2="454"
     y2="264"
     id="line73" /><line
     fill="none"
     stroke="#000000"
     stroke-width="2"
     x1="438"
     y1="250"
     x2="438"
     y2="264"
     id="line75" /><line
     fill="none"
     stroke="#000000"
     stroke-width="2"
     x1="518"
     y1="268"
     x2="550"
     y2="268"
     id="line77" /><line
     fill="none"
     stroke="#000000"
     stroke-width="2"
     x1="518"
     y1="264"
     x2="550"
     y2="264"
     id="line79" /><line
     fill="none"
     stroke="#000000"
     stroke-width="2"
     x1="534"
     y1="250"
     x2="534"
     y2="264"
     id="line81" /><line
     fill="none"
     stroke="#000000"
     stroke-width="2"
     x1="612"
     y1="268"
     x2="644"
     y2="268"
     id="line83" /><line
     fill="none"
     stroke="#000000"
     stroke-width="2"
     x1="612"
     y1="264"
     x2="644"
     y2="264"
     id="line85" /><line
     fill="none"
     stroke="#000000"
     stroke-width="2"
     x1="628"
     y1="250"
     x2="628"
     y2="264"
     id="line87" /><g
     id="g89"><line
       fill="none"
       stroke="#000000"
       stroke-width="2"
       x1="202"
       y1="322"
       x2="202"
       y2="302"
       id="line91" /><line
       fill="none"
       stroke="#000000"
       stroke-width="2"
       x1="194"
       y1="322"
       x2="210"
       y2="322"
       id="line93" /><line
       fill="none"
       stroke="#000000"
       stroke-width="2"
       x1="196"
       y1="326"
       x2="208"
       y2="326"
       id="line95" /><line
       fill="none"
       stroke="#000000"
       stroke-width="2"
       x1="200"
       y1="330"
       x2="204"
       y2="330"
       id="line97" /></g><text
     transform="matrix(1 0 0 1 139.665 230)"
     id="text99"><tspan
       x="0"
       y="0"
       font-family="'ArialMT'"
       font-size="12"
       id="tspan101">Word</tspan><tspan
       x="-2.013"
       y="14.4"
       font-family="'ArialMT'"
       font-size="12"
       id="tspan103">Line 0</tspan></text>
<text
     transform="matrix(1 0 0 1 233.665 230)"
     id="text105"><tspan
       x="0"
       y="0"
       font-family="'ArialMT'"
       font-size="12"
       id="tspan107">Word</tspan><tspan
       x="-2.013"
       y="14.4"
       font-family="'ArialMT'"
       font-size="12"
       id="tspan109">Line 1</tspan></text>
<text
     transform="matrix(1 0 0 1 327.665 230)"
     id="text111"><tspan
       x="0"
       y="0"
       font-family="'ArialMT'"
       font-size="12"
       id="tspan113">Word</tspan><tspan
       x="-2.013"
       y="14.4"
       font-family="'ArialMT'"
       font-size="12"
       id="tspan115">Line 2</tspan></text>
<text
     transform="matrix(1 0 0 1 421.665 230)"
     id="text117"><tspan
       x="0"
       y="0"
       font-family="'ArialMT'"
       font-size="12"
       id="tspan119">Word</tspan><tspan
       x="-2.013"
       y="14.4"
       font-family="'ArialMT'"
       font-size="12"
       id="tspan121">Line 3</tspan></text>
<text
     transform="matrix(1 0 0 1 517.665 230)"
     id="text123"><tspan
       x="0"
       y="0"
       font-family="'ArialMT'"
       font-size="12"
       id="tspan125">Word</tspan><tspan
       x="-2.013"
       y="14.4"
       font-family="'ArialMT'"
       font-size="12"
       id="tspan127">Line 4</tspan></text>
<text
     transform="matrix(1 0 0 1 611.665 230)"
     id="text129"><tspan
       x="0"
       y="0"
       font-family="'ArialMT'"
       font-size="12"
       id="tspan131">Word</tspan><tspan
       x="-2.013"
       y="14.4"
       font-family="'ArialMT'"
       font-size="12"
       id="tspan133">Line 5</tspan></text>
<text
     transform="matrix(1 0 0 1 689.9873 186)"
     font-family="'ArialMT'"
     font-size="12"
     id="text135">Bit Line</text>
<path
     fill="#00FFFF"
     stroke="#000000"
     d="M76,410v8c0,0,0,8,15,8s30,0,30,0s15,0,15-8s0-8,0-8"
     id="path137" /><rect
     x="228"
     y="400"
     fill="#B3B3B3"
     stroke="#000000"
     width="40"
     height="8"
     id="rect139" /><rect
     x="228"
     y="390"
     fill="#B3B3B3"
     stroke="#000000"
     width="40"
     height="8"
     id="rect141" /><rect
     x="324"
     y="400"
     fill="#B3B3B3"
     stroke="#000000"
     width="40"
     height="8"
     id="rect143" /><rect
     x="324"
     y="390"
     fill="#B3B3B3"
     stroke="#000000"
     width="40"
     height="8"
     id="rect145" /><rect
     x="420"
     y="400"
     fill="#B3B3B3"
     stroke="#000000"
     width="40"
     height="8"
     id="rect147" /><rect
     x="420"
     y="390"
     fill="#B3B3B3"
     stroke="#000000"
     width="40"
     height="8"
     id="rect149" /><rect
     x="516"
     y="400"
     fill="#B3B3B3"
     stroke="#000000"
     width="40"
     height="8"
     id="rect151" /><rect
     x="516"
     y="390"
     fill="#B3B3B3"
     stroke="#000000"
     width="40"
     height="8"
     id="rect153" /><rect
     x="612"
     y="400"
     fill="#B3B3B3"
     stroke="#000000"
     width="40"
     height="8"
     id="rect155" /><rect
     x="612"
     y="390"
     fill="#B3B3B3"
     stroke="#000000"
     width="40"
     height="8"
     id="rect157" /><rect
     x="96"
     y="378"
     fill="#F7931E"
     stroke="#000000"
     width="16"
     height="32"
     id="rect159" /><rect
     x="672"
     y="378"
     fill="#F7931E"
     stroke="#000000"
     width="16"
     height="32"
     id="rect161" /><text
     transform="matrix(1 0 0 1 99.667 422)"
     font-family="'ArialMT'"
     font-size="12"
     id="text163">N</text>
<text
     transform="matrix(1 0 0 1 179 422)"
     font-family="'ArialMT'"
     font-size="12"
     id="text165">N, GND</text>
<path
     fill="#00FFFF"
     stroke="#000000"
     d="M264.001,410v8c0,0,0,8,16,8s32,0,32,0s16,0,16-8s0-8,0-8"
     id="path167" /><text
     transform="matrix(1 0 0 1 291.667 422)"
     font-family="'ArialMT'"
     font-size="12"
     id="text169">N</text>
<text
     transform="matrix(1 0 0 1 393.9985 444)"
     font-family="'ArialMT'"
     font-size="12"
     id="text171">P</text>
<rect
     x="132"
     y="400"
     fill="#B3B3B3"
     stroke="#000000"
     width="40"
     height="8"
     id="rect173" /><rect
     x="132"
     y="390"
     fill="#B3B3B3"
     stroke="#000000"
     width="40"
     height="8"
     id="rect175" /><rect
     x="288"
     y="378"
     fill="#F7931E"
     stroke="#000000"
     width="16"
     height="32"
     id="rect177" /><path
     fill="#00FFFF"
     stroke="#000000"
     d="M360,410v8c0,0,0,8,16,8s32,0,32,0s15.999,0,15.999-8s0-8,0-8"
     id="path179" /><text
     transform="matrix(1 0 0 1 370.9985 422)"
     font-family="'ArialMT'"
     font-size="12"
     id="text181">N, GND</text>
<path
     fill="#00FFFF"
     stroke="#000000"
     d="M456.002,410v8c0,0,0,8,15.999,8S504,426,504,426s16,0,16-8s0-8,0-8"
     id="path183" /><text
     transform="matrix(1 0 0 1 483.667 422)"
     font-family="'ArialMT'"
     font-size="12"
     id="text185">N</text>
<rect
     x="480"
     y="378"
     fill="#F7931E"
     stroke="#000000"
     width="16"
     height="32"
     id="rect187" /><path
     fill="#00FFFF"
     stroke="#000000"
     d="M552,410v8c0,0,0,8,15.999,8s31.999,0,31.999,0s16,0,16-8s0-8,0-8"
     id="path189" /><text
     transform="matrix(1 0 0 1 562.998 422)"
     font-family="'ArialMT'"
     font-size="12"
     id="text191">N, GND</text>
<path
     fill="#00FFFF"
     stroke="#000000"
     d="M648,410v8c0,0,0,8,15.999,8s31.999,0,31.999,0s16,0,16-8s0-8,0-8"
     id="path193" /><text
     transform="matrix(1 0 0 1 675.665 422)"
     font-family="'ArialMT'"
     font-size="12"
     id="text195">N</text>
<rect
     x="80"
     y="360"
     fill="#F7931E"
     stroke="#000000"
     width="624"
     height="18"
     id="rect197" /><line
     fill="none"
     stroke="#000000"
     stroke-width="2"
     x1="104"
     y1="194"
     x2="104"
     y2="302"
     id="line199" /><line
     fill="none"
     stroke="#000000"
     stroke-width="2"
     x1="264"
     y1="302"
     x2="328"
     y2="302"
     id="line201" /><line
     fill="none"
     stroke="#000000"
     stroke-width="2"
     x1="296"
     y1="192"
     x2="296"
     y2="302"
     id="line203" /><line
     fill="none"
     stroke="#000000"
     stroke-width="2"
     x1="422"
     y1="302"
     x2="360"
     y2="302"
     id="line205" /><g
     id="g207"><line
       fill="none"
       stroke="#000000"
       stroke-width="2"
       x1="392"
       y1="322"
       x2="392"
       y2="302"
       id="line209" /><line
       fill="none"
       stroke="#000000"
       stroke-width="2"
       x1="384"
       y1="322"
       x2="400"
       y2="322"
       id="line211" /><line
       fill="none"
       stroke="#000000"
       stroke-width="2"
       x1="386"
       y1="326"
       x2="398"
       y2="326"
       id="line213" /><line
       fill="none"
       stroke="#000000"
       stroke-width="2"
       x1="390"
       y1="330"
       x2="394"
       y2="330"
       id="line215" /></g><line
     fill="none"
     stroke="#000000"
     stroke-width="2"
     x1="454"
     y1="302"
     x2="518"
     y2="302"
     id="line217" /><line
     fill="none"
     stroke="#000000"
     stroke-width="2"
     x1="486"
     y1="192"
     x2="486"
     y2="302"
     id="line219" /><line
     fill="none"
     stroke="#000000"
     stroke-width="2"
     x1="612"
     y1="302"
     x2="550"
     y2="302"
     id="line221" /><g
     id="g223"><line
       fill="none"
       stroke="#000000"
       stroke-width="2"
       x1="582"
       y1="322"
       x2="582"
       y2="302"
       id="line225" /><line
       fill="none"
       stroke="#000000"
       stroke-width="2"
       x1="574"
       y1="322"
       x2="590"
       y2="322"
       id="line227" /><line
       fill="none"
       stroke="#000000"
       stroke-width="2"
       x1="576"
       y1="326"
       x2="588"
       y2="326"
       id="line229" /><line
       fill="none"
       stroke="#000000"
       stroke-width="2"
       x1="580"
       y1="330"
       x2="584"
       y2="330"
       id="line231" /></g></svg>